<svg xmlns="http://www.w3.org/2000/svg" width="1400" height="875" viewBox="0 0 1400 875" fill="none" stroke-linecap="round" stroke-linejoin="round"><g stroke="#8A9099" stroke-width="1" opacity="0.10"><path d="M0 0V875"/><path d="M50 0V875"/><path d="M100 0V875"/><path d="M150 0V875"/><path d="M200 0V875"/><path d="M250 0V875"/><path d="M300 0V875"/><path d="M350 0V875"/><path d="M400 0V875"/><path d="M450 0V875"/><path d="M500 0V875"/><path d="M550 0V875"/><path d="M600 0V875"/><path d="M650 0V875"/><path d="M700 0V875"/><path d="M750 0V875"/><path d="M800 0V875"/><path d="M850 0V875"/><path d="M900 0V875"/><path d="M950 0V875"/><path d="M1000 0V875"/><path d="M1050 0V875"/><path d="M1100 0V875"/><path d="M1150 0V875"/><path d="M1200 0V875"/><path d="M1250 0V875"/><path d="M1300 0V875"/><path d="M1350 0V875"/><path d="M1400 0V875"/><path d="M0 0H1400"/><path d="M0 50H1400"/><path d="M0 100H1400"/><path d="M0 150H1400"/><path d="M0 200H1400"/><path d="M0 250H1400"/><path d="M0 300H1400"/><path d="M0 350H1400"/><path d="M0 400H1400"/><path d="M0 450H1400"/><path d="M0 500H1400"/><path d="M0 550H1400"/><path d="M0 600H1400"/><path d="M0 650H1400"/><path d="M0 700H1400"/><path d="M0 750H1400"/><path d="M0 800H1400"/><path d="M0 850H1400"/></g><rect x="1150" y="200" width="50" height="50" fill="#2F6BB0" opacity="0.07" stroke="none"/><rect x="1350" y="650" width="50" height="50" fill="#2F6BB0" opacity="0.07" stroke="none"/><rect x="700" y="650" width="50" height="50" fill="#2F6BB0" opacity="0.07" stroke="none"/><rect x="850" y="600" width="50" height="50" fill="#2F6BB0" opacity="0.07" stroke="none"/><rect x="500" y="300" width="50" height="50" fill="#2F6BB0" opacity="0.07" stroke="none"/><rect x="550" y="700" width="50" height="50" fill="#2F6BB0" opacity="0.07" stroke="none"/><rect x="650" y="400" width="50" height="50" fill="#2F6BB0" opacity="0.07" stroke="none"/><rect x="1200" y="400" width="50" height="50" fill="#2F6BB0" opacity="0.07" stroke="none"/><rect x="300" y="100" width="50" height="50" fill="#2F6BB0" opacity="0.07" stroke="none"/><rect x="900" y="50" width="50" height="50" fill="#2F6BB0" opacity="0.07" stroke="none"/><rect x="900" y="500" width="50" height="50" fill="#2F6BB0" opacity="0.07" stroke="none"/><rect x="200" y="100" width="50" height="50" fill="#2F6BB0" opacity="0.07" stroke="none"/><rect x="1100" y="500" width="50" height="50" fill="#2F6BB0" opacity="0.07" stroke="none"/><rect x="250" y="150" width="50" height="50" fill="#2F6BB0" opacity="0.07" stroke="none"/><rect x="400" y="100" width="50" height="50" fill="#2F6BB0" opacity="0.07" stroke="none"/><rect x="950" y="100" width="50" height="50" fill="#2F6BB0" opacity="0.07" stroke="none"/><rect x="700" y="750" width="50" height="50" fill="#2F6BB0" opacity="0.07" stroke="none"/><rect x="400" y="550" width="50" height="50" fill="#2F6BB0" opacity="0.07" stroke="none"/><rect x="450" y="500" width="50" height="50" fill="#2F6BB0" opacity="0.07" stroke="none"/><rect x="650" y="500" width="50" height="50" fill="#2F6BB0" opacity="0.07" stroke="none"/><rect x="750" y="350" width="50" height="50" fill="#2F6BB0" opacity="0.07" stroke="none"/><rect x="800" y="300" width="50" height="50" fill="#2F6BB0" opacity="0.07" stroke="none"/><rect x="350" y="150" width="50" height="50" fill="#2F6BB0" opacity="0.07" stroke="none"/><rect x="900" y="150" width="50" height="50" fill="#2F6BB0" opacity="0.07" stroke="none"/><rect x="1050" y="100" width="50" height="50" fill="#2F6BB0" opacity="0.07" stroke="none"/><rect x="1100" y="150" width="50" height="50" fill="#2F6BB0" opacity="0.07" stroke="none"/><rect x="1100" y="600" width="50" height="50" fill="#2F6BB0" opacity="0.07" stroke="none"/><rect x="1350" y="400" width="50" height="50" fill="#2F6BB0" opacity="0.07" stroke="none"/><rect x="850" y="350" width="50" height="50" fill="#2F6BB0" opacity="0.07" stroke="none"/><rect x="250" y="250" width="50" height="50" fill="#2F6BB0" opacity="0.07" stroke="none"/><rect x="950" y="200" width="50" height="50" fill="#2F6BB0" opacity="0.07" stroke="none"/><rect x="450" y="150" width="50" height="50" fill="#2F6BB0" opacity="0.07" stroke="none"/><rect x="450" y="600" width="50" height="50" fill="#2F6BB0" opacity="0.07" stroke="none"/><rect x="1200" y="150" width="50" height="50" fill="#2F6BB0" opacity="0.07" stroke="none"/><rect x="650" y="600" width="50" height="50" fill="#2F6BB0" opacity="0.07" stroke="none"/><rect x="1300" y="450" width="50" height="50" fill="#2F6BB0" opacity="0.07" stroke="none"/><rect x="1200" y="600" width="50" height="50" fill="#2F6BB0" opacity="0.07" stroke="none"/><rect x="300" y="300" width="50" height="50" fill="#2F6BB0" opacity="0.07" stroke="none"/><rect x="900" y="250" width="50" height="50" fill="#2F6BB0" opacity="0.07" stroke="none"/><rect x="1100" y="250" width="50" height="50" fill="#2F6BB0" opacity="0.07" stroke="none"/><rect x="1150" y="650" width="50" height="50" fill="#2F6BB0" opacity="0.07" stroke="none"/><rect x="850" y="450" width="50" height="50" fill="#2F6BB0" opacity="0.07" stroke="none"/><rect x="250" y="350" width="50" height="50" fill="#2F6BB0" opacity="0.07" stroke="none"/><rect x="950" y="300" width="50" height="50" fill="#2F6BB0" opacity="0.07" stroke="none"/><rect x="450" y="250" width="50" height="50" fill="#2F6BB0" opacity="0.07" stroke="none"/><rect x="450" y="700" width="50" height="50" fill="#2F6BB0" opacity="0.07" stroke="none"/><rect x="1200" y="250" width="50" height="50" fill="#2F6BB0" opacity="0.07" stroke="none"/><rect x="500" y="750" width="50" height="50" fill="#2F6BB0" opacity="0.07" stroke="none"/><rect x="650" y="700" width="50" height="50" fill="#2F6BB0" opacity="0.07" stroke="none"/><rect x="750" y="550" width="50" height="50" fill="#2F6BB0" opacity="0.07" stroke="none"/><rect x="1300" y="550" width="50" height="50" fill="#2F6BB0" opacity="0.07" stroke="none"/><rect x="800" y="500" width="50" height="50" fill="#2F6BB0" opacity="0.07" stroke="none"/><rect x="900" y="350" width="50" height="50" fill="#2F6BB0" opacity="0.07" stroke="none"/><rect x="1250" y="650" width="50" height="50" fill="#2F6BB0" opacity="0.07" stroke="none"/><rect x="350" y="350" width="50" height="50" fill="#2F6BB0" opacity="0.07" stroke="none"/><rect x="1000" y="50" width="50" height="50" fill="#2F6BB0" opacity="0.07" stroke="none"/><rect x="600" y="300" width="50" height="50" fill="#2F6BB0" opacity="0.07" stroke="none"/><rect x="1150" y="300" width="50" height="50" fill="#2F6BB0" opacity="0.07" stroke="none"/><rect x="600" y="750" width="50" height="50" fill="#2F6BB0" opacity="0.07" stroke="none"/><rect x="700" y="600" width="50" height="50" fill="#2F6BB0" opacity="0.07" stroke="none"/><rect x="850" y="550" width="50" height="50" fill="#2F6BB0" opacity="0.07" stroke="none"/><rect x="450" y="350" width="50" height="50" fill="#2F6BB0" opacity="0.07" stroke="none"/><rect x="650" y="350" width="50" height="50" fill="#2F6BB0" opacity="0.07" stroke="none"/><rect x="1300" y="650" width="50" height="50" fill="#2F6BB0" opacity="0.07" stroke="none"/><rect x="800" y="600" width="50" height="50" fill="#2F6BB0" opacity="0.07" stroke="none"/><rect x="900" y="450" width="50" height="50" fill="#2F6BB0" opacity="0.07" stroke="none"/><rect x="1100" y="450" width="50" height="50" fill="#2F6BB0" opacity="0.07" stroke="none"/><rect x="600" y="400" width="50" height="50" fill="#2F6BB0" opacity="0.07" stroke="none"/><rect x="1150" y="400" width="50" height="50" fill="#2F6BB0" opacity="0.07" stroke="none"/><rect x="250" y="100" width="50" height="50" fill="#2F6BB0" opacity="0.07" stroke="none"/><rect x="200" y="200" width="50" height="50" fill="#2F6BB0" opacity="0.07" stroke="none"/><rect x="700" y="700" width="50" height="50" fill="#2F6BB0" opacity="0.07" stroke="none"/><rect x="750" y="600" width="50" height="50" fill="#2F6BB0" opacity="0.07" stroke="none"/><rect x="400" y="650" width="50" height="50" fill="#2F6BB0" opacity="0.07" stroke="none"/><rect x="500" y="500" width="50" height="50" fill="#2F6BB0" opacity="0.07" stroke="none"/><rect x="650" y="450" width="50" height="50" fill="#2F6BB0" opacity="0.07" stroke="none"/><rect x="1200" y="450" width="50" height="50" fill="#2F6BB0" opacity="0.07" stroke="none"/><rect x="1250" y="400" width="50" height="50" fill="#2F6BB0" opacity="0.07" stroke="none"/><rect x="750" y="300" width="50" height="50" fill="#2F6BB0" opacity="0.07" stroke="none"/><rect x="350" y="100" width="50" height="50" fill="#2F6BB0" opacity="0.07" stroke="none"/><rect x="900" y="100" width="50" height="50" fill="#2F6BB0" opacity="0.07" stroke="none"/><rect x="900" y="550" width="50" height="50" fill="#2F6BB0" opacity="0.07" stroke="none"/><rect x="1000" y="250" width="50" height="50" fill="#2F6BB0" opacity="0.07" stroke="none"/><rect x="1100" y="100" width="50" height="50" fill="#2F6BB0" opacity="0.07" stroke="none"/><rect x="1150" y="50" width="50" height="50" fill="#2F6BB0" opacity="0.07" stroke="none"/><rect x="1100" y="550" width="50" height="50" fill="#2F6BB0" opacity="0.07" stroke="none"/><rect x="600" y="500" width="50" height="50" fill="#2F6BB0" opacity="0.07" stroke="none"/><rect x="700" y="350" width="50" height="50" fill="#2F6BB0" opacity="0.07" stroke="none"/><rect x="1150" y="500" width="50" height="50" fill="#2F6BB0" opacity="0.07" stroke="none"/><rect x="200" y="300" width="50" height="50" fill="#2F6BB0" opacity="0.07" stroke="none"/><rect x="250" y="200" width="50" height="50" fill="#2F6BB0" opacity="0.07" stroke="none"/><rect x="450" y="100" width="50" height="50" fill="#2F6BB0" opacity="0.07" stroke="none"/><rect x="1350" y="500" width="50" height="50" fill="#2F6BB0" opacity="0.07" stroke="none"/><rect x="400" y="300" width="50" height="50" fill="#2F6BB0" opacity="0.07" stroke="none"/><rect x="500" y="150" width="50" height="50" fill="#2F6BB0" opacity="0.07" stroke="none"/><rect x="1200" y="100" width="50" height="50" fill="#2F6BB0" opacity="0.07" stroke="none"/><rect x="650" y="550" width="50" height="50" fill="#2F6BB0" opacity="0.07" stroke="none"/><rect x="550" y="550" width="50" height="50" fill="#2F6BB0" opacity="0.07" stroke="none"/><rect x="800" y="350" width="50" height="50" fill="#2F6BB0" opacity="0.07" stroke="none"/><rect x="900" y="200" width="50" height="50" fill="#2F6BB0" opacity="0.07" stroke="none"/><rect x="1050" y="300" width="50" height="50" fill="#2F6BB0" opacity="0.07" stroke="none"/><rect x="1150" y="150" width="50" height="50" fill="#2F6BB0" opacity="0.07" stroke="none"/><rect x="1100" y="650" width="50" height="50" fill="#2F6BB0" opacity="0.07" stroke="none"/><rect x="1150" y="600" width="50" height="50" fill="#2F6BB0" opacity="0.07" stroke="none"/><rect x="250" y="300" width="50" height="50" fill="#2F6BB0" opacity="0.07" stroke="none"/><rect x="1350" y="600" width="50" height="50" fill="#2F6BB0" opacity="0.07" stroke="none"/><rect x="500" y="250" width="50" height="50" fill="#2F6BB0" opacity="0.07" stroke="none"/><rect x="1200" y="200" width="50" height="50" fill="#2F6BB0" opacity="0.07" stroke="none"/><rect x="500" y="700" width="50" height="50" fill="#2F6BB0" opacity="0.07" stroke="none"/><rect x="1250" y="600" width="50" height="50" fill="#2F6BB0" opacity="0.07" stroke="none"/><rect x="1100" y="300" width="50" height="50" fill="#2F6BB0" opacity="0.07" stroke="none"/><rect x="1150" y="250" width="50" height="50" fill="#2F6BB0" opacity="0.07" stroke="none"/><rect x="600" y="700" width="50" height="50" fill="#2F6BB0" opacity="0.07" stroke="none"/><rect x="700" y="550" width="50" height="50" fill="#2F6BB0" opacity="0.07" stroke="none"/><rect x="950" y="50" width="50" height="50" fill="#2F6BB0" opacity="0.07" stroke="none"/><rect x="400" y="500" width="50" height="50" fill="#2F6BB0" opacity="0.07" stroke="none"/><rect x="500" y="350" width="50" height="50" fill="#2F6BB0" opacity="0.07" stroke="none"/><rect x="1200" y="300" width="50" height="50" fill="#2F6BB0" opacity="0.07" stroke="none"/><rect x="550" y="750" width="50" height="50" fill="#2F6BB0" opacity="0.07" stroke="none"/><rect x="300" y="150" width="50" height="50" fill="#2F6BB0" opacity="0.07" stroke="none"/><rect x="1000" y="100" width="50" height="50" fill="#2F6BB0" opacity="0.07" stroke="none"/><rect x="1050" y="50" width="50" height="50" fill="#2F6BB0" opacity="0.07" stroke="none"/><rect x="1100" y="400" width="50" height="50" fill="#2F6BB0" opacity="0.07" stroke="none"/><rect x="600" y="350" width="50" height="50" fill="#2F6BB0" opacity="0.07" stroke="none"/><rect x="200" y="150" width="50" height="50" fill="#2F6BB0" opacity="0.07" stroke="none"/><rect x="850" y="300" width="50" height="50" fill="#2F6BB0" opacity="0.07" stroke="none"/><rect x="400" y="150" width="50" height="50" fill="#2F6BB0" opacity="0.07" stroke="none"/><rect x="950" y="150" width="50" height="50" fill="#2F6BB0" opacity="0.07" stroke="none"/><rect x="400" y="600" width="50" height="50" fill="#2F6BB0" opacity="0.07" stroke="none"/><rect x="450" y="550" width="50" height="50" fill="#2F6BB0" opacity="0.07" stroke="none"/><rect x="1300" y="400" width="50" height="50" fill="#2F6BB0" opacity="0.07" stroke="none"/><rect x="1100" y="50" width="50" height="50" fill="#2F6BB0" opacity="0.07" stroke="none"/><rect x="600" y="450" width="50" height="50" fill="#2F6BB0" opacity="0.07" stroke="none"/><rect x="1150" y="450" width="50" height="50" fill="#2F6BB0" opacity="0.07" stroke="none"/><rect x="700" y="300" width="50" height="50" fill="#2F6BB0" opacity="0.07" stroke="none"/><rect x="200" y="250" width="50" height="50" fill="#2F6BB0" opacity="0.07" stroke="none"/><rect x="1350" y="450" width="50" height="50" fill="#2F6BB0" opacity="0.07" stroke="none"/><rect x="850" y="400" width="50" height="50" fill="#2F6BB0" opacity="0.07" stroke="none"/><rect x="950" y="250" width="50" height="50" fill="#2F6BB0" opacity="0.07" stroke="none"/><rect x="500" y="100" width="50" height="50" fill="#2F6BB0" opacity="0.07" stroke="none"/><rect x="450" y="200" width="50" height="50" fill="#2F6BB0" opacity="0.07" stroke="none"/><rect x="400" y="700" width="50" height="50" fill="#2F6BB0" opacity="0.07" stroke="none"/><rect x="500" y="550" width="50" height="50" fill="#2F6BB0" opacity="0.07" stroke="none"/><rect x="450" y="650" width="50" height="50" fill="#2F6BB0" opacity="0.07" stroke="none"/><rect x="550" y="500" width="50" height="50" fill="#2F6BB0" opacity="0.07" stroke="none"/><rect x="1250" y="450" width="50" height="50" fill="#2F6BB0" opacity="0.07" stroke="none"/><rect x="650" y="650" width="50" height="50" fill="#2F6BB0" opacity="0.07" stroke="none"/><rect x="1300" y="500" width="50" height="50" fill="#2F6BB0" opacity="0.07" stroke="none"/><rect x="1200" y="650" width="50" height="50" fill="#2F6BB0" opacity="0.07" stroke="none"/><rect x="300" y="350" width="50" height="50" fill="#2F6BB0" opacity="0.07" stroke="none"/><rect x="350" y="300" width="50" height="50" fill="#2F6BB0" opacity="0.07" stroke="none"/><rect x="1050" y="250" width="50" height="50" fill="#2F6BB0" opacity="0.07" stroke="none"/><rect x="900" y="300" width="50" height="50" fill="#2F6BB0" opacity="0.07" stroke="none"/><rect x="1000" y="300" width="50" height="50" fill="#2F6BB0" opacity="0.07" stroke="none"/><rect x="1150" y="100" width="50" height="50" fill="#2F6BB0" opacity="0.07" stroke="none"/><rect x="600" y="550" width="50" height="50" fill="#2F6BB0" opacity="0.07" stroke="none"/><rect x="1150" y="550" width="50" height="50" fill="#2F6BB0" opacity="0.07" stroke="none"/><rect x="200" y="350" width="50" height="50" fill="#2F6BB0" opacity="0.07" stroke="none"/><rect x="1350" y="550" width="50" height="50" fill="#2F6BB0" opacity="0.07" stroke="none"/><rect x="850" y="500" width="50" height="50" fill="#2F6BB0" opacity="0.07" stroke="none"/><rect x="400" y="350" width="50" height="50" fill="#2F6BB0" opacity="0.07" stroke="none"/><rect x="500" y="200" width="50" height="50" fill="#2F6BB0" opacity="0.07" stroke="none"/><rect x="450" y="300" width="50" height="50" fill="#2F6BB0" opacity="0.07" stroke="none"/><rect x="500" y="650" width="50" height="50" fill="#2F6BB0" opacity="0.07" stroke="none"/><rect x="450" y="750" width="50" height="50" fill="#2F6BB0" opacity="0.07" stroke="none"/><rect x="650" y="300" width="50" height="50" fill="#2F6BB0" opacity="0.07" stroke="none"/><rect x="650" y="750" width="50" height="50" fill="#2F6BB0" opacity="0.07" stroke="none"/><rect x="1300" y="600" width="50" height="50" fill="#2F6BB0" opacity="0.07" stroke="none"/><rect x="800" y="550" width="50" height="50" fill="#2F6BB0" opacity="0.07" stroke="none"/><rect x="900" y="400" width="50" height="50" fill="#2F6BB0" opacity="0.07" stroke="none"/><rect x="550" y="650" width="50" height="50" fill="#8A9099" opacity="0.55" stroke="none"/><rect x="800" y="450" width="50" height="50" fill="#8A9099" opacity="0.55" stroke="none"/><rect x="600" y="650" width="50" height="50" fill="#8A9099" opacity="0.55" stroke="none"/><rect x="700" y="500" width="50" height="50" fill="#8A9099" opacity="0.55" stroke="none"/><rect x="1200" y="500" width="50" height="50" fill="#8A9099" opacity="0.55" stroke="none"/><rect x="300" y="200" width="50" height="50" fill="#8A9099" opacity="0.55" stroke="none"/><rect x="750" y="500" width="50" height="50" fill="#8A9099" opacity="0.55" stroke="none"/><rect x="1000" y="150" width="50" height="50" fill="#8A9099" opacity="0.55" stroke="none"/><rect x="500" y="600" width="50" height="50" fill="#8A9099" opacity="0.55" stroke="none"/><rect x="1200" y="550" width="50" height="50" fill="#8A9099" opacity="0.55" stroke="none"/><rect x="1250" y="500" width="50" height="50" fill="#8A9099" opacity="0.55" stroke="none"/><rect x="350" y="200" width="50" height="50" fill="#8A9099" opacity="0.55" stroke="none"/><rect x="700" y="400" width="50" height="50" fill="#8A9099" opacity="0.55" stroke="none"/><rect x="400" y="200" width="50" height="50" fill="#8A9099" opacity="0.55" stroke="none"/><rect x="750" y="400" width="50" height="50" fill="#8A9099" opacity="0.55" stroke="none"/><rect x="300" y="250" width="50" height="50" fill="#8A9099" opacity="0.55" stroke="none"/><rect x="1000" y="200" width="50" height="50" fill="#8A9099" opacity="0.55" stroke="none"/><rect x="1050" y="150" width="50" height="50" fill="#8A9099" opacity="0.55" stroke="none"/><rect x="1100" y="200" width="50" height="50" fill="#8A9099" opacity="0.55" stroke="none"/><rect x="550" y="600" width="50" height="50" fill="#8A9099" opacity="0.55" stroke="none"/><rect x="600" y="600" width="50" height="50" fill="#8A9099" opacity="0.55" stroke="none"/><rect x="700" y="450" width="50" height="50" fill="#8A9099" opacity="0.55" stroke="none"/><rect x="750" y="450" width="50" height="50" fill="#8A9099" opacity="0.55" stroke="none"/><rect x="1250" y="550" width="50" height="50" fill="#8A9099" opacity="0.55" stroke="none"/><rect x="800" y="400" width="50" height="50" fill="#8A9099" opacity="0.55" stroke="none"/><rect x="350" y="250" width="50" height="50" fill="#8A9099" opacity="0.55" stroke="none"/><rect x="1050" y="200" width="50" height="50" fill="#8A9099" opacity="0.55" stroke="none"/><rect x="400" y="250" width="50" height="50" fill="#8A9099" opacity="0.55" stroke="none"/><path d="M125.0 725.0 L225.0 725.0 L225.0 575.0 L325.0 575.0 L325.0 475.0 L475.0 475.0 L475.0 325.0 L625.0 325.0 L625.0 175.0 L875.0 175.0 L875.0 325.0 L975.0 325.0 L975.0 475.0 L1175.0 475.0 L1175.0 725.0 L1325.0 725.0" stroke="#2F6BB0" stroke-width="4" opacity="0.95"/><circle cx="125" cy="725" r="13" fill="#2F6BB0" stroke="none"/><circle cx="1325" cy="725" r="15" stroke="#2F6BB0" stroke-width="4"/><circle cx="1325" cy="725" r="5" fill="#2F6BB0" stroke="none"/><text x="60" y="70" fill="#2F6BB0" font-size="22" font-family="ui-monospace,SFMono-Regular,Menlo,monospace" letter-spacing="1">A* global plan</text><text x="60" y="105" fill="#8A9099" font-size="18" font-family="ui-monospace,SFMono-Regular,Menlo,monospace" letter-spacing="1">inflation radius · 0.35 m</text></svg>